<?xml version='1.0' encoding='UTF-8' standalone='no'?>
<!-- Created with Fritzing (http://www.fritzing.org/) -->
<svg xmlns="http://www.w3.org/2000/svg" xmlns:svg="http://www.w3.org/2000/svg" version="1.2" width="1.5748in" baseProfile="tiny" height="1.1811in"  viewBox="0 0 113.386 85.0394" x="0in" y="0in">
 <g partID="854718460">
  <g style="display:inline" id="board" >
   <path style="fill-rule:evenodd;stroke-linecap:butt;stroke-linejoin:miter;" stroke="black" fill="none" stroke-width="0.5" fill-opacity="1" id="boardoutline"  d="M0,0,0,85.0391,113.386,56.6922,113.386,0,0,0Zm8.50469,4.25156a4.25197,4.25197,0,0,1,4.25156,4.25312,4.25197,4.25197,0,0,1,-4.25156,4.25156,4.25197,4.25197,0,0,1,-4.25312,-4.25156,4.25197,4.25197,0,0,1,4.25312,-4.25312zm96.3766,0a4.25197,4.25197,0,0,1,4.25313,4.25312,4.25197,4.25197,0,0,1,-4.25313,4.25156,4.25197,4.25197,0,0,1,-4.25156,-4.25156,4.25197,4.25197,0,0,1,4.25156,-4.25312zm0,41.5453a4.25197,4.25197,0,0,1,4.25313,4.25156,4.25197,4.25197,0,0,1,-4.25313,4.25156,4.25197,4.25197,0,0,1,-4.25156,-4.25156,4.25197,4.25197,0,0,1,4.25156,-4.25156zM8.50469,69.8875a4.25197,4.25197,0,0,1,4.25156,4.25312,4.25197,4.25197,0,0,1,-4.25156,4.25156,4.25197,4.25197,0,0,1,-4.25312,-4.25156,4.25197,4.25197,0,0,1,4.25312,-4.25312z" stroke-opacity="1"/>
  </g>
 </g>
 <g partID="854776990">
  <g transform="translate(35.8416,23.6352)">
   <g id="copper0" >
    <g stroke="black" fill="none" stroke-width="1.44" id="0" r="1.98"  cx="4.752" cy="4.752"/>
    <g stroke="black" fill="none" stroke-width="1.44" id="1" r="1.98"  cx="26.352" cy="4.752"/>
   </g>
  </g>
 </g>
 <g partID="854713670">
  <g transform="translate(32.678,13.2716)">
   <g id="copper0" >
    <g stroke="black" fill="none" stroke-width="1.44" id="2" r="1.99559"  cx="4.31559" cy="4.31559"/>
   </g>
  </g>
 </g>
 <g partID="854819140">
  <g transform="translate(75.878,52.8716)">
   <g id="copper0" >
    <g stroke="black" fill="none" stroke-width="1.44" id="3" r="1.99559"  cx="4.31559" cy="4.31559"/>
   </g>
  </g>
 </g>
 <g partID="854819120">
  <g transform="translate(65.078,52.8716)">
   <g id="copper0" >
    <g stroke="black" fill="none" stroke-width="1.44" id="4" r="1.99559"  cx="4.31559" cy="4.31559"/>
   </g>
  </g>
 </g>
 <g partID="854819100">
  <g transform="translate(72.278,2.47161)">
   <g id="copper0" >
    <g stroke="black" fill="none" stroke-width="1.44" id="5" r="1.99559"  cx="4.31559" cy="4.31559"/>
   </g>
  </g>
 </g>
 <g partID="854819080">
  <g transform="translate(79.478,2.47161)">
   <g id="copper0" >
    <g stroke="black" fill="none" stroke-width="1.44" id="6" r="1.99559"  cx="4.31559" cy="4.31559"/>
   </g>
  </g>
 </g>
 <g partID="854713560">
  <g transform="translate(21.878,20.4716)">
   <g id="copper0" >
    <g stroke="black" fill="none" stroke-width="1.44" id="7" r="1.99559"  cx="4.31559" cy="4.31559"/>
   </g>
  </g>
 </g>
 <g partID="854708110">
  <g transform="translate(54.278,6.07161)">
   <g id="copper0" >
    <g stroke="black" fill="none" stroke-width="1.44" id="8" r="1.99559"  cx="4.31559" cy="4.31559"/>
   </g>
  </g>
 </g>
 <g partID="854708100">
  <g transform="translate(47.0784,6.072)">
   <g id="copper0" >
    <g stroke="black" fill="none" stroke-width="1.44" id="9" r="1.99559"  cx="4.31559" cy="4.31559"/>
   </g>
  </g>
 </g>
 <g partID="854708090">
  <g transform="translate(39.8784,6.072)">
   <g id="copper0" >
    <g stroke="black" fill="none" stroke-width="1.44" id="10" r="1.99559"  cx="4.31559" cy="4.31559"/>
   </g>
  </g>
 </g>
 <g partID="854707270">
  <g transform="translate(75.878,42.0716)">
   <g id="copper0" >
    <g stroke="black" fill="none" stroke-width="1.44" id="11" r="1.99559"  cx="4.31559" cy="4.31559"/>
   </g>
  </g>
 </g>
 <g partID="854707250">
  <g transform="translate(21.878,6.07161)">
   <g id="copper0" >
    <g stroke="black" fill="none" stroke-width="1.44" id="12" r="1.99559"  cx="4.31559" cy="4.31559"/>
   </g>
  </g>
 </g>
 <g partID="854707230">
  <g transform="translate(21.878,13.2716)">
   <g id="copper0" >
    <g stroke="black" fill="none" stroke-width="1.44" id="13" r="1.99559"  cx="4.31559" cy="4.31559"/>
   </g>
  </g>
 </g>
 <g partID="854770340">
  <g transform="translate(43.4736,70.8672)">
   <g transform="matrix(-1,0,0,-1,0,0)">
    <g id="copper0" >
     <g id="copper1" >
      <g stroke="black" fill="none" stroke-width="1.44" id="14" r="1.8"  cx="2.88" cy="2.88"/>
      <g stroke="black" fill="none" stroke-width="1.44" id="15" r="1.8"  cx="10.0933" cy="2.88"/>
     </g>
    </g>
   </g>
  </g>
 </g>
 <g partID="854587550">
  <g transform="translate(48.5136,63.6672)">
   <g transform="matrix(0,-1,1,0,0,0)">
    <g id="copper0" >
     <g id="copper1" >
      <g stroke="black" fill="none" stroke-width="1.44" id="16" r="1.8"  cx="2.88" cy="2.88"/>
      <g stroke="black" fill="none" stroke-width="1.44" id="17" r="1.8"  cx="10.0933" cy="2.88"/>
     </g>
    </g>
   </g>
  </g>
 </g>
 <g partID="854582900">
  <g transform="translate(44.9136,65.1072)">
   <g transform="matrix(-1,0,0,-1,0,0)">
    <g id="copper0" >
     <g stroke="black" fill="none" width="3.96" height="3.96" stroke-width="1.44" id="18"  x="2.34" y="2.34"/>
     <g stroke="black" fill="none" stroke-width="1.44" id="19" r="1.98"  cx="4.32" cy="4.32"/>
     <g stroke="black" fill="none" stroke-width="1.44" id="20" r="1.98"  cx="25.92" cy="4.32"/>
     <g stroke="black" fill="none" stroke-width="1.44" id="21" r="1.98"  cx="4.32" cy="11.52"/>
     <g stroke="black" fill="none" stroke-width="1.44" id="22" r="1.98"  cx="25.92" cy="11.52"/>
     <g stroke="black" fill="none" stroke-width="1.44" id="23" r="1.98"  cx="4.32" cy="18.72"/>
     <g stroke="black" fill="none" stroke-width="1.44" id="24" r="1.98"  cx="25.92" cy="18.72"/>
     <g stroke="black" fill="none" stroke-width="1.44" id="25" r="1.98"  cx="4.32" cy="25.92"/>
     <g stroke="black" fill="none" stroke-width="1.44" id="26" r="1.98"  cx="25.92" cy="25.92"/>
    </g>
   </g>
  </g>
 </g>
 <g partID="854511430">
  <g transform="translate(106.294,22.0872)">
   <g transform="matrix(0,1,-1,0,0,0)">
    <g id="copper0" >
     <g id="copper1" >
      <!--  <rect width="55" x="10" y="35" fill="none" height="55" stroke="rgb(255, 191, 0)" stroke-width="20" /> -->
      <g stroke="black" fill="none" stroke-width="1.44" id="27" r="1.98"  cx="2.7" cy="4.5"/>
      <g stroke="black" fill="none" stroke-width="1.44" id="28" r="1.98"  cx="9.9" cy="4.5"/>
     </g>
    </g>
   </g>
  </g>
 </g>
 <g partID="854394610">
  <g transform="translate(95.3136,39.9072)">
   <g transform="matrix(-1,0,0,-1,0,0)">
    <g id="copper0" >
     <g stroke="black" fill="none" width="3.96" height="3.96" stroke-width="1.44" id="29"  x="2.34" y="2.34"/>
     <g stroke="black" fill="none" stroke-width="1.44" id="30" r="1.98"  cx="4.32" cy="4.32"/>
     <g stroke="black" fill="none" stroke-width="1.44" id="31" r="1.98"  cx="25.92" cy="4.32"/>
     <g stroke="black" fill="none" stroke-width="1.44" id="32" r="1.98"  cx="4.32" cy="11.52"/>
     <g stroke="black" fill="none" stroke-width="1.44" id="33" r="1.98"  cx="25.92" cy="11.52"/>
     <g stroke="black" fill="none" stroke-width="1.44" id="34" r="1.98"  cx="4.32" cy="18.72"/>
     <g stroke="black" fill="none" stroke-width="1.44" id="35" r="1.98"  cx="25.92" cy="18.72"/>
     <g stroke="black" fill="none" stroke-width="1.44" id="36" r="1.98"  cx="4.32" cy="25.92"/>
     <g stroke="black" fill="none" stroke-width="1.44" id="37" r="1.98"  cx="25.92" cy="25.92"/>
    </g>
   </g>
  </g>
 </g>
</svg>
