<?xml version='1.0' encoding='UTF-8' standalone='no'?>
<!-- Created with Fritzing (http://www.fritzing.org/) -->
<svg xmlns="http://www.w3.org/2000/svg" xmlns:svg="http://www.w3.org/2000/svg" version="1.2" height="1.1811in" y="0in"  width="1.5748in" baseProfile="tiny" viewBox="0 0 113.386 85.0392" x="0in">
 <g partID="854692280">
  <g style="display:inline"  id="board">
   <path stroke-opacity="1" stroke="black" d="M0,0,0,85.0389,113.386,56.6921,113.386,0,0,0Zm8.50467,4.25155a4.25196,4.25196,0,0,1,4.25155,4.25312,4.25196,4.25196,0,0,1,-4.25155,4.25155,4.25196,4.25196,0,0,1,-4.25312,-4.25155,4.25196,4.25196,0,0,1,4.25312,-4.25312zm96.3764,0a4.25196,4.25196,0,0,1,4.25312,4.25312,4.25196,4.25196,0,0,1,-4.25312,4.25155,4.25196,4.25196,0,0,1,-4.25155,-4.25155,4.25196,4.25196,0,0,1,4.25155,-4.25312zm0,41.5452a4.25196,4.25196,0,0,1,4.25312,4.25155,4.25196,4.25196,0,0,1,-4.25312,4.25155,4.25196,4.25196,0,0,1,-4.25155,-4.25155,4.25196,4.25196,0,0,1,4.25155,-4.25155zM8.50467,69.8874a4.25196,4.25196,0,0,1,4.25155,4.25312,4.25196,4.25196,0,0,1,-4.25155,4.25155,4.25196,4.25196,0,0,1,-4.25312,-4.25155,4.25196,4.25196,0,0,1,4.25312,-4.25312z" fill="none" fill-opacity="1" style="fill-rule:evenodd;stroke-linecap:butt;stroke-linejoin:miter;"  stroke-width="0.5" id="boardoutline"/>
  </g>
 </g>
 <g partID="854866850">
  <g transform="translate(34.4528,38.9888)">
   <g transform="matrix(0,1,-1,0,0,0)">
    <g  id="copper0">
     <g  id="copper1">
      <!-- <rect width="55" x="35" y="35" fill="none" height="55" stroke="rgb(255, 191, 0)" stroke-width="20" /> -->
      <circle cy="4.5" stroke="black" r="1.98" fill="none"  stroke-width="1.44" cx="4.5" id="connector0pin"/>
      <circle cy="4.5" stroke="black" r="1.98" fill="none"  stroke-width="1.44" cx="11.7" id="connector1pin"/>
     </g>
    </g>
   </g>
  </g>
 </g>
 <g partID="854865430">
  <g transform="translate(34.4528,6.5888)">
   <g transform="matrix(0,1,-1,0,0,0)">
    <g  id="copper0">
     <g  id="copper1">
      <!-- <rect width="55" x="35" y="35" fill="none" height="55" stroke="rgb(255, 191, 0)" stroke-width="20" /> -->
      <circle cy="4.5" stroke="black" r="1.98" fill="none"  stroke-width="1.44" cx="4.5" id="connector0pin"/>
      <circle cy="4.5" stroke="black" r="1.98" fill="none"  stroke-width="1.44" cx="11.7" id="connector1pin"/>
     </g>
    </g>
   </g>
  </g>
 </g>
 <g partID="854863990">
  <g transform="translate(39.8528,73.1888)">
   <g transform="matrix(-1,0,0,-1,0,0)">
    <g  id="copper0">
     <g  id="copper1">
      <!--  <rect width="55" x="10" y="35" fill="none" height="55" stroke="rgb(255, 191, 0)" stroke-width="20" /> -->
      <circle cy="4.5" stroke="black" r="1.98" fill="none"  stroke-width="1.44" cx="2.7" id="connector0pin"/>
      <circle cy="4.5" stroke="black" r="1.98" fill="none"  stroke-width="1.44" cx="9.9" id="connector1pin"/>
     </g>
    </g>
   </g>
  </g>
 </g>
 <g partID="854862700">
  <g transform="translate(43.4528,33.5888)">
   <g transform="matrix(-1,0,0,-1,0,0)">
    <g  id="copper0">
     <g  id="copper1">
      <!--  <rect width="55" x="10" y="35" fill="none" height="55" stroke="rgb(255, 191, 0)" stroke-width="20" /> -->
      <circle cy="4.5" stroke="black" r="1.98" fill="none"  stroke-width="1.44" cx="2.7" id="connector0pin"/>
      <circle cy="4.5" stroke="black" r="1.98" fill="none"  stroke-width="1.44" cx="9.9" id="connector1pin"/>
     </g>
    </g>
   </g>
  </g>
 </g>
 <g partID="854690640">
  <g transform="translate(76.0372,3.17321)">
   <g  id="copper0">
    <circle cy="4.31559" stroke="black" r="1.99559" fill="none"  stroke-width="1.44" cx="4.31559" id="connector0pin"/>
   </g>
  </g>
 </g>
 <g partID="854950940">
  <g transform="translate(76.0372,49.9732)">
   <g  id="copper0">
    <circle cy="4.31559" stroke="black" r="1.99559" fill="none"  stroke-width="1.44" cx="4.31559" id="connector0pin"/>
   </g>
  </g>
 </g>
 <g partID="854950920">
  <g transform="translate(72.4372,21.1732)">
   <g  id="copper0">
    <circle cy="4.31559" stroke="black" r="1.99559" fill="none"  stroke-width="1.44" cx="4.31559" id="connector0pin"/>
   </g>
  </g>
 </g>
 <g partID="854950480">
  <g transform="translate(83.2372,3.17321)">
   <g  id="copper0">
    <circle cy="4.31559" stroke="black" r="1.99559" fill="none"  stroke-width="1.44" cx="4.31559" id="connector0pin"/>
   </g>
  </g>
 </g>
 <g partID="854950540">
  <g transform="translate(79.6372,35.5732)">
   <g  id="copper0">
    <circle cy="4.31559" stroke="black" r="1.99559" fill="none"  stroke-width="1.44" cx="4.31559" id="connector0pin"/>
   </g>
  </g>
 </g>
 <g partID="854811780">
  <g transform="translate(83.2372,13.9732)">
   <g  id="copper0">
    <circle cy="4.31559" stroke="black" r="1.99559" fill="none"  stroke-width="1.44" cx="4.31559" id="connector0pin"/>
   </g>
  </g>
 </g>
 <g partID="854811210">
  <g transform="translate(86.8372,21.1732)">
   <g  id="copper0">
    <circle cy="4.31559" stroke="black" r="1.99559" fill="none"  stroke-width="1.44" cx="4.31559" id="connector0pin"/>
   </g>
  </g>
 </g>
 <g partID="854690620">
  <g transform="translate(83.2372,49.9732)">
   <g  id="copper0">
    <circle cy="4.31559" stroke="black" r="1.99559" fill="none"  stroke-width="1.44" cx="4.31559" id="connector0pin"/>
   </g>
  </g>
 </g>
 <g partID="854955800">
  <g transform="translate(65.2372,57.1732)">
   <g  id="copper0">
    <circle cy="4.31559" stroke="black" r="1.99559" fill="none"  stroke-width="1.44" cx="4.31559" id="connector0pin"/>
   </g>
  </g>
 </g>
 <g partID="854955820">
  <g transform="translate(50.8372,60.7732)">
   <g  id="copper0">
    <circle cy="4.31559" stroke="black" r="1.99559" fill="none"  stroke-width="1.44" cx="4.31559" id="connector0pin"/>
   </g>
  </g>
 </g>
 <g partID="854683760">
  <g transform="translate(11.2372,42.7732)">
   <g  id="copper0">
    <circle cy="4.31559" stroke="black" r="1.99559" fill="none"  stroke-width="1.44" cx="4.31559" id="connector0pin"/>
   </g>
  </g>
 </g>
 <g partID="854683240">
  <g transform="translate(4.03721,21.1732)">
   <g  id="copper0">
    <circle cy="4.31559" stroke="black" r="1.99559" fill="none"  stroke-width="1.44" cx="4.31559" id="connector0pin"/>
   </g>
  </g>
 </g>
 <g partID="854439860">
  <g transform="translate(30.9608,47.0888)">
   <g transform="matrix(0,1,-1,0,0,0)">
    <g  id="copper0">
     <circle cy="8.208" stroke="black" r="1.98" fill="none"  stroke-width="1.44" cx="3.6" id="connector0pin"/>
     <circle cy="8.208" stroke="black" r="1.98" fill="none"  stroke-width="1.44" cx="10.8" id="connector1pin"/>
     <circle cy="8.208" stroke="black" r="1.98" fill="none"  stroke-width="1.44" cx="18" id="connector2pin"/>
    </g>
   </g>
  </g>
 </g>
 <g partID="854432300">
  <g transform="translate(30.9608,21.8888)">
   <g transform="matrix(0,1,-1,0,0,0)">
    <g  id="copper0">
     <circle cy="8.208" stroke="black" r="1.98" fill="none"  stroke-width="1.44" cx="3.6" id="connector0pin"/>
     <circle cy="8.208" stroke="black" r="1.98" fill="none"  stroke-width="1.44" cx="10.8" id="connector1pin"/>
     <circle cy="8.208" stroke="black" r="1.98" fill="none"  stroke-width="1.44" cx="18" id="connector2pin"/>
    </g>
   </g>
  </g>
 </g>
 <g partID="854434710">
  <g transform="translate(42.9128,25.4888)">
   <g  id="copper0">
    <rect stroke="black" height="4.464" fill="none" y="12.168"  stroke-width="1.44" width="4.464" x="6.408"/>
    <circle cy="14.4" stroke="black" r="2.232" fill="none"  stroke-width="1.44" cx="8.64" id="connector0pad"/>
    <circle cy="14.4" stroke="black" r="2.232" fill="none"  stroke-width="1.44" cx="15.84" id="connector1pad"/>
    <circle cy="14.4" stroke="black" r="2.232" fill="none"  stroke-width="1.44" cx="23.04" id="connector2pad"/>
   </g>
  </g>
 </g>
 <g partID="854432330">
  <g transform="translate(46.5128,-3.3112)">
   <g  id="copper0">
    <rect stroke="black" height="4.464" fill="none" y="12.168"  stroke-width="1.44" width="4.464" x="6.408"/>
    <circle cy="14.4" stroke="black" r="2.232" fill="none"  stroke-width="1.44" cx="8.64" id="connector0pad"/>
    <circle cy="14.4" stroke="black" r="2.232" fill="none"  stroke-width="1.44" cx="15.84" id="connector1pad"/>
    <circle cy="14.4" stroke="black" r="2.232" fill="none"  stroke-width="1.44" cx="23.04" id="connector2pad"/>
   </g>
  </g>
 </g>
 <g partID="854442930">
  <g transform="translate(45.2528,44.3888)">
   <g transform="matrix(0,1,-1,0,0,0)">
    <g  id="copper0">
     <g  id="copper1">
      <!--  <rect width="55" x="10" y="35" fill="none" height="55" stroke="rgb(255, 191, 0)" stroke-width="20" /> -->
      <circle cy="4.5" stroke="black" r="1.98" fill="none"  stroke-width="1.44" cx="2.7" id="connector0pin"/>
      <circle cy="4.5" stroke="black" r="1.98" fill="none"  stroke-width="1.44" cx="9.9" id="connector1pin"/>
     </g>
    </g>
   </g>
  </g>
 </g>
 <g partID="854432360">
  <g transform="translate(36.2528,20.9888)">
   <g transform="matrix(0,-1,1,0,0,0)">
    <g  id="copper0">
     <g  id="copper1">
      <!--  <rect width="55" x="10" y="35" fill="none" height="55" stroke="rgb(255, 191, 0)" stroke-width="20" /> -->
      <circle cy="4.5" stroke="black" r="1.98" fill="none"  stroke-width="1.44" cx="2.7" id="connector0pin"/>
      <circle cy="4.5" stroke="black" r="1.98" fill="none"  stroke-width="1.44" cx="9.9" id="connector1pin"/>
     </g>
    </g>
   </g>
  </g>
 </g>
 <g partID="854440300">
  <g transform="translate(12.8528,46.1888)">
   <g transform="matrix(0,1,-1,0,0,0)">
    <g  id="copper0">
     <g  id="copper1">
      <!-- <rect width="55" x="35" y="35" fill="none" height="55" stroke="rgb(255, 191, 0)" stroke-width="20" /> -->
      <circle cy="4.5" stroke="black" r="1.98" fill="none"  stroke-width="1.44" cx="4.5" id="connector0pin"/>
      <circle cy="4.5" stroke="black" r="1.98" fill="none"  stroke-width="1.44" cx="11.7" id="connector1pin"/>
     </g>
    </g>
   </g>
  </g>
 </g>
 <g partID="854432410">
  <g transform="translate(12.8528,29.9888)">
   <g transform="matrix(1.11022e-16,1,-1,1.11022e-16,0,0)">
    <g  id="copper0">
     <g  id="copper1">
      <!--  <rect width="55" x="10" y="35" fill="none" height="55" stroke="rgb(255, 191, 0)" stroke-width="20" /> -->
      <circle cy="4.5" stroke="black" r="1.98" fill="none"  stroke-width="1.44" cx="2.7" id="connector0pin"/>
      <circle cy="4.5" stroke="black" r="1.98" fill="none"  stroke-width="1.44" cx="9.9" id="connector1pin"/>
     </g>
    </g>
   </g>
  </g>
 </g>
 <g partID="854534970">
  <g transform="translate(42.9128,11.0888)">
   <g  id="copper0">
    <rect stroke="black" height="4.464" fill="none" y="12.168"  stroke-width="1.44" width="4.464" x="6.408"/>
    <circle cy="14.4" stroke="black" r="2.232" fill="none"  stroke-width="1.44" cx="8.64" id="connector0pad"/>
    <circle cy="14.4" stroke="black" r="2.232" fill="none"  stroke-width="1.44" cx="15.84" id="connector1pad"/>
    <circle cy="14.4" stroke="black" r="2.232" fill="none"  stroke-width="1.44" cx="23.04" id="connector2pad"/>
   </g>
  </g>
 </g>
 <g partID="854582090">
  <g transform="translate(46.5128,39.8888)">
   <g  id="copper0">
    <rect stroke="black" height="4.464" fill="none" y="12.168"  stroke-width="1.44" width="4.464" x="6.408"/>
    <circle cy="14.4" stroke="black" r="2.232" fill="none"  stroke-width="1.44" cx="8.64" id="connector0pad"/>
    <circle cy="14.4" stroke="black" r="2.232" fill="none"  stroke-width="1.44" cx="15.84" id="connector1pad"/>
    <circle cy="14.4" stroke="black" r="2.232" fill="none"  stroke-width="1.44" cx="23.04" id="connector2pad"/>
   </g>
  </g>
 </g>
 <g partID="854939260">
  <line x1="20.5525" stroke="black" y1="33.7889" stroke-width="2.304" y2="38.7887" x2="10.5531" stroke-linecap="round"/>
 </g>
 <g partID="854939320">
  <line x1="22.7317" stroke="black" y1="11.0677" stroke-width="2.304" y2="23.0288" x2="22.7492" stroke-linecap="round"/>
 </g>
 <g partID="854939330">
  <line x1="27.4928" stroke="black" y1="11.0816" stroke-width="2.304" y2="11.0677" x2="22.7317" stroke-linecap="round"/>
 </g>
 <g partID="854939360">
  <line x1="38.2928" stroke="black" y1="18.2888" stroke-width="2.304" y2="18.2888" x2="32.4128" stroke-linecap="round"/>
 </g>
 <g partID="854939400">
  <line x1="42.4932" stroke="black" y1="16.5503" stroke-width="2.304" y2="11.1437" x2="47.9057" stroke-linecap="round"/>
 </g>
 <g partID="854940070">
  <line x1="47.9057" stroke="black" y1="11.1437" stroke-width="2.304" y2="11.1063" x2="52.8409" stroke-linecap="round"/>
 </g>
 <g partID="854939440">
  <line x1="47.9057" stroke="black" y1="3.86527" stroke-width="2.304" y2="3.86527" x2="65.9763" stroke-linecap="round"/>
 </g>
 <g partID="854939920">
  <line x1="65.9763" stroke="black" y1="3.86527" stroke-width="2.304" y2="9.01685" x2="68.5269" stroke-linecap="round"/>
 </g>
 <g partID="854939450">
  <line x1="42.4837" stroke="black" y1="9.3408" stroke-width="2.304" y2="3.86527" x2="47.9057" stroke-linecap="round"/>
 </g>
 <g partID="854940740">
  <line x1="25.0918" stroke="black" y1="39.1268" stroke-width="2.304" y2="36.3503" x2="33.6143" stroke-linecap="round"/>
 </g>
 <g partID="854940800">
  <line x1="33.6143" stroke="black" y1="36.3503" stroke-width="2.304" y2="31.5487" x2="33.5736" stroke-linecap="round"/>
 </g>
 <g partID="854940810">
  <line x1="50.0499" stroke="black" y1="27.7463" stroke-width="2.304" y2="36.3503" x2="44.322" stroke-linecap="round"/>
 </g>
 <g partID="854955210">
  <line x1="44.322" stroke="black" y1="36.3503" stroke-width="2.304" y2="36.3503" x2="33.6143" stroke-linecap="round"/>
 </g>
 <g partID="854941000">
  <line x1="10.8128" stroke="black" y1="57.8888" stroke-width="2.304" y2="57.8888" x2="20.2928" stroke-linecap="round"/>
 </g>
 <g partID="854949210">
  <line x1="58.7621" stroke="black" y1="32.6609" stroke-width="2.304" y2="27.8008" x2="58.7558" stroke-linecap="round"/>
 </g>
 <g partID="854941300">
  <line x1="58.7558" stroke="black" y1="37.5768" stroke-width="2.304" y2="32.6609" x2="58.7621" stroke-linecap="round"/>
 </g>
 <g partID="854941400">
  <line x1="22.7095" stroke="black" y1="48.2292" stroke-width="2.304" y2="47.151" x2="22.6906" stroke-linecap="round"/>
 </g>
 <g partID="854954530">
  <line x1="22.6906" stroke="black" y1="47.151" stroke-width="2.304" y2="44.5965" x2="27.7563" stroke-linecap="round"/>
 </g>
 <g partID="854942500">
  <line x1="24.9531" stroke="black" y1="66.1889" stroke-width="2.304" y2="67.5887" x2="27.7525" stroke-linecap="round"/>
 </g>
 <g partID="854942900">
  <line x1="44.322" stroke="black" y1="61.458" stroke-width="2.304" y2="61.4653" x2="33.5999" stroke-linecap="round"/>
 </g>
 <g partID="854942940">
  <line x1="33.5999" stroke="black" y1="61.4653" stroke-width="2.304" y2="66.8499" x2="30.8812" stroke-linecap="round"/>
 </g>
 <g partID="854942910">
  <line x1="52.8913" stroke="black" y1="55.7857" stroke-width="2.304" y2="61.458" x2="44.322" stroke-linecap="round"/>
 </g>
 <g partID="854944280">
  <line x1="42.4668" stroke="black" y1="45.9461" stroke-width="2.304" y2="41.1713" x2="49.6291" stroke-linecap="round"/>
 </g>
 <g partID="854944320">
  <line x1="38.7985" stroke="black" y1="47.7402" stroke-width="2.304" y2="50.0374" x2="31.9071" stroke-linecap="round"/>
 </g>
 <g partID="854948760">
  <line x1="65.9763" stroke="black" y1="47.0339" stroke-width="2.304" y2="52.2204" x2="63.3859" stroke-linecap="round"/>
 </g>
 <g partID="854949410">
  <line x1="87.6285" stroke="black" y1="47.078" stroke-width="2.304" y2="47.0339" x2="65.9763" stroke-linecap="round"/>
 </g>
 <g partID="854944390">
  <line x1="65.9317" stroke="black" y1="18.3099" stroke-width="2.304" y2="18.2912" x2="85.0772" stroke-linecap="round"/>
 </g>
 <g partID="854944400">
  <line x1="63.5571" stroke="black" y1="13.5187" stroke-width="2.304" y2="18.3099" x2="65.9317" stroke-linecap="round"/>
 </g>
 <g partID="854945010">
  <line x1="47.9057" stroke="black" y1="18.2966" stroke-width="2.304" y2="27.0383" x2="42.1119" stroke-linecap="round"/>
 </g>
 <g partID="854945020">
  <line x1="64.0351" stroke="black" y1="23.5711" stroke-width="2.304" y2="18.3099" x2="58.7739" stroke-linecap="round"/>
 </g>
 <g partID="854945450">
  <line x1="58.7739" stroke="black" y1="18.3099" stroke-width="2.304" y2="18.2966" x2="47.9057" stroke-linecap="round"/>
 </g>
 <g partID="854946300">
  <line x1="58.7739" stroke="black" y1="47.1099" stroke-width="2.304" y2="41.8121" x2="64.0407" stroke-linecap="round"/>
 </g>
 <g partID="854946380">
  <line x1="51.545" stroke="black" y1="47.0339" stroke-width="2.304" y2="47.1099" x2="58.7739" stroke-linecap="round"/>
 </g>
 <g partID="854946310">
  <line x1="42.4624" stroke="black" y1="53.1395" stroke-width="2.304" y2="47.0339" x2="51.545" stroke-linecap="round"/>
 </g>
 <g partID="854949040">
  <line x1="72.1256" stroke="black" y1="10.2312" stroke-width="2.304" y2="8.27165" x2="78.0042" stroke-linecap="round"/>
 </g>
 <g partID="854949360">
  <line x1="83.996" stroke="black" y1="32.7212" stroke-width="2.304" y2="27.2485" x2="89.4115" stroke-linecap="round"/>
 </g>
 <g partID="854949290">
  <line x1="58.7621" stroke="black" y1="32.6609" stroke-width="2.304" y2="32.7212" x2="83.996" stroke-linecap="round"/>
 </g>
 <g partID="854955750">
  <line x1="98.3528" stroke="black" y1="36.3503" stroke-width="2.304" y2="25.5196" x2="98.3528" stroke-linecap="round"/>
 </g>
 <g partID="854955700">
  <line x1="98.3528" stroke="black" y1="25.5196" stroke-width="2.304" y2="18.258" x2="94.7836" stroke-linecap="round"/>
 </g>
 <g partID="854955610">
  <line x1="94.7836" stroke="black" y1="18.258" stroke-width="2.304" y2="18.2783" x2="90.0284" stroke-linecap="round"/>
 </g>
 <g partID="854949450">
  <line x1="87.6285" stroke="black" y1="47.078" stroke-width="2.304" y2="36.3503" x2="98.3528" stroke-linecap="round"/>
 </g>
 <g partID="854950620">
  <line x1="82.8284" stroke="black" y1="7.4888" stroke-width="2.304" y2="7.4888" x2="85.0772" stroke-linecap="round"/>
 </g>
 <g partID="854950780">
  <line x1="68.2648" stroke="black" y1="39.8888" stroke-width="2.304" y2="39.8888" x2="81.8772" stroke-linecap="round"/>
 </g>
 <g partID="854950960">
  <line x1="68.2648" stroke="black" y1="25.4888" stroke-width="2.304" y2="25.4888" x2="74.6772" stroke-linecap="round"/>
 </g>
 <g partID="854951370">
  <line x1="71.8648" stroke="black" y1="54.2888" stroke-width="2.304" y2="54.2888" x2="78.2772" stroke-linecap="round"/>
 </g>
 <g partID="854953760">
  <line x1="82.4284" stroke="black" y1="54.2888" stroke-width="2.304" y2="54.2888" x2="85.4772" stroke-linecap="round"/>
 </g>
 <g partID="854954710">
  <line x1="10.5531" stroke="black" y1="49.5887" stroke-width="2.304" y2="48.1959" x2="13.3386" stroke-linecap="round"/>
 </g>
 <g partID="854954760">
  <line x1="8.3528" stroke="black" y1="30.2288" stroke-width="2.304" y2="27.9644" x2="8.3528" stroke-linecap="round"/>
 </g>
 <g partID="854956240">
  <line x1="69.5528" stroke="black" y1="56.6008" stroke-width="2.304" y2="59.4132" x2="69.5528" stroke-linecap="round"/>
 </g>
 <g partID="854957480">
  <line x1="39.565" stroke="black" y1="68.2064" stroke-width="2.304" y2="65.5743" x2="52.7253" stroke-linecap="round"/>
 </g>
 <g partID="854958650">
  <line x1="67.5392" stroke="black" y1="61.9922" stroke-width="2.304" y2="64.5854" x2="57.1664" stroke-linecap="round"/>
 </g>
</svg>
