<?xml version='1.0' encoding='UTF-8' standalone='no'?>
<!-- Created with Fritzing (http://www.fritzing.org/) -->
<svg xmlns="http://www.w3.org/2000/svg" xmlns:svg="http://www.w3.org/2000/svg" version="1.2" width="1.5748in" baseProfile="tiny" height="1.1811in"  viewBox="0 0 113.386 85.0392" x="0in" y="0in">
 <g transform="matrix(-1, 0, 0, 1, 113.386, 0)">
  <g partID="854719562">
   <g style="display:inline" id="silkscreen">
    <g id="g4308">
     <path style="fill-rule:evenodd;stroke-linecap:butt;stroke-linejoin:miter;stroke-miterlimit:4;stroke-dasharray:none;" stroke="black" fill="none" stroke-width="0.575999" fill-opacity="1" id="path4286" d="M0,85.0392,0,2.40295e-06l113.386,0,0,56.6928z" stroke-opacity="1"/>
     <path style="fill-rule:evenodd;stroke-linecap:butt;stroke-linejoin:miter;stroke-miterlimit:4;stroke-dasharray:none;" stroke="black" fill="none" stroke-width="0.575999" fill-opacity="1" id="path4288" d="M17.0078,74.1398A8.50392,8.50392,0,0,1,8.50392,82.6438,8.50392,8.50392,0,0,1,0,74.1398,8.50392,8.50392,0,0,1,8.50392,65.6359,8.50392,8.50392,0,0,1,17.0078,74.1398Z" stroke-opacity="1"/>
     <path style="fill-rule:evenodd;stroke-linecap:butt;stroke-linejoin:miter;stroke-miterlimit:4;stroke-dasharray:none;" stroke="black" fill="none" stroke-width="0.575999" fill-opacity="1" id="path4290" d="M113.386,50.0495A8.50392,8.50392,0,0,1,104.882,58.5534,8.50392,8.50392,0,0,1,96.3778,50.0495,8.50392,8.50392,0,0,1,104.882,41.5456,8.50392,8.50392,0,0,1,113.386,50.0495Z" stroke-opacity="1"/>
     <path style="fill-rule:evenodd;stroke-linecap:butt;stroke-linejoin:miter;stroke-miterlimit:4;stroke-dasharray:none;" stroke="black" fill="none" stroke-width="0.575999" fill-opacity="1" id="path4292" d="M113.386,8.50392A8.50392,8.50392,0,0,1,104.882,17.0078,8.50392,8.50392,0,0,1,96.3778,8.50392,8.50392,8.50392,0,0,1,104.882,7.62938e-07,8.50392,8.50392,0,0,1,113.386,8.50392Z" stroke-opacity="1"/>
     <path style="fill-rule:evenodd;stroke-linecap:butt;stroke-linejoin:miter;stroke-miterlimit:4;stroke-dasharray:none;" stroke="black" fill="none" stroke-width="0.575999" fill-opacity="1" id="path4294" d="M17.0078,8.50392A8.50392,8.50392,0,0,1,8.50392,17.0078,8.50392,8.50392,0,0,1,0,8.50392,8.50392,8.50392,0,0,1,8.50392,7.62938e-07,8.50392,8.50392,0,0,1,17.0078,8.50392Z" stroke-opacity="1"/>
     <circle style="fill-rule:evenodd;stroke-linecap:butt;stroke-linejoin:miter;stroke-miterlimit:4;stroke-dasharray:none;" stroke="black" fill="none" stroke-width="0.575999" id="circle4296" r="4.25196" cx="8.50392" cy="74.14" stroke-opacity="1"/>
     <circle style="fill-rule:evenodd;stroke-linecap:butt;stroke-linejoin:miter;stroke-miterlimit:4;stroke-dasharray:none;" stroke="black" fill="none" stroke-width="0.575999" id="circle4298" r="4.25196" cx="8.50392" cy="8.50392" stroke-opacity="1"/>
     <circle style="fill-rule:evenodd;stroke-linecap:butt;stroke-linejoin:miter;stroke-miterlimit:4;stroke-dasharray:none;" stroke="black" fill="none" stroke-width="0.575999" id="circle4300" r="4.25196" cx="104.882" cy="8.50392" stroke-opacity="1"/>
     <circle style="fill-rule:evenodd;stroke-linecap:butt;stroke-linejoin:miter;stroke-miterlimit:4;stroke-dasharray:none;" stroke="black" fill="none" stroke-width="0.575999" id="circle4302" r="4.25196" cx="104.882" cy="50.0484" stroke-opacity="1"/>
    </g>
   </g>
  </g>
  <g partID="854719560">
   <g style="display:inline" id="board">
    <path style="fill-rule:evenodd;stroke-linecap:butt;stroke-linejoin:miter;" stroke="black" fill="none" stroke-width="0.5" fill-opacity="1" id="boardoutline" d="M0,0,0,85.0389,113.386,56.6921,113.386,0,0,0Zm8.50467,4.25155a4.25196,4.25196,0,0,1,4.25155,4.25312,4.25196,4.25196,0,0,1,-4.25155,4.25155,4.25196,4.25196,0,0,1,-4.25312,-4.25155,4.25196,4.25196,0,0,1,4.25312,-4.25312zm96.3764,0a4.25196,4.25196,0,0,1,4.25312,4.25312,4.25196,4.25196,0,0,1,-4.25312,4.25155,4.25196,4.25196,0,0,1,-4.25155,-4.25155,4.25196,4.25196,0,0,1,4.25155,-4.25312zm0,41.5452a4.25196,4.25196,0,0,1,4.25312,4.25155,4.25196,4.25196,0,0,1,-4.25312,4.25155,4.25196,4.25196,0,0,1,-4.25155,-4.25155,4.25196,4.25196,0,0,1,4.25155,-4.25155zM8.50467,69.8874a4.25196,4.25196,0,0,1,4.25155,4.25312,4.25196,4.25196,0,0,1,-4.25155,4.25155,4.25196,4.25196,0,0,1,-4.25312,-4.25155,4.25196,4.25196,0,0,1,4.25312,-4.25312z" stroke-opacity="1"/>
   </g>
  </g>
  <g partID="854719562">
   <g style="display:inline" id="silkscreen">
    <g id="g4308">
     <path style="fill-rule:evenodd;stroke-linecap:butt;stroke-linejoin:miter;stroke-miterlimit:4;stroke-dasharray:none;" stroke="black" fill="none" stroke-width="0.575999" fill-opacity="1" id="path4286" d="M0,85.0392,0,2.40295e-06l113.386,0,0,56.6928z" stroke-opacity="1"/>
     <path style="fill-rule:evenodd;stroke-linecap:butt;stroke-linejoin:miter;stroke-miterlimit:4;stroke-dasharray:none;" stroke="black" fill="none" stroke-width="0.575999" fill-opacity="1" id="path4288" d="M17.0078,74.1398A8.50392,8.50392,0,0,1,8.50392,82.6438,8.50392,8.50392,0,0,1,0,74.1398,8.50392,8.50392,0,0,1,8.50392,65.6359,8.50392,8.50392,0,0,1,17.0078,74.1398Z" stroke-opacity="1"/>
     <path style="fill-rule:evenodd;stroke-linecap:butt;stroke-linejoin:miter;stroke-miterlimit:4;stroke-dasharray:none;" stroke="black" fill="none" stroke-width="0.575999" fill-opacity="1" id="path4290" d="M113.386,50.0495A8.50392,8.50392,0,0,1,104.882,58.5534,8.50392,8.50392,0,0,1,96.3778,50.0495,8.50392,8.50392,0,0,1,104.882,41.5456,8.50392,8.50392,0,0,1,113.386,50.0495Z" stroke-opacity="1"/>
     <path style="fill-rule:evenodd;stroke-linecap:butt;stroke-linejoin:miter;stroke-miterlimit:4;stroke-dasharray:none;" stroke="black" fill="none" stroke-width="0.575999" fill-opacity="1" id="path4292" d="M113.386,8.50392A8.50392,8.50392,0,0,1,104.882,17.0078,8.50392,8.50392,0,0,1,96.3778,8.50392,8.50392,8.50392,0,0,1,104.882,7.62938e-07,8.50392,8.50392,0,0,1,113.386,8.50392Z" stroke-opacity="1"/>
     <path style="fill-rule:evenodd;stroke-linecap:butt;stroke-linejoin:miter;stroke-miterlimit:4;stroke-dasharray:none;" stroke="black" fill="none" stroke-width="0.575999" fill-opacity="1" id="path4294" d="M17.0078,8.50392A8.50392,8.50392,0,0,1,8.50392,17.0078,8.50392,8.50392,0,0,1,0,8.50392,8.50392,8.50392,0,0,1,8.50392,7.62938e-07,8.50392,8.50392,0,0,1,17.0078,8.50392Z" stroke-opacity="1"/>
     <circle style="fill-rule:evenodd;stroke-linecap:butt;stroke-linejoin:miter;stroke-miterlimit:4;stroke-dasharray:none;" stroke="black" fill="none" stroke-width="0.575999" id="circle4296" r="4.25196" cx="8.50392" cy="74.14" stroke-opacity="1"/>
     <circle style="fill-rule:evenodd;stroke-linecap:butt;stroke-linejoin:miter;stroke-miterlimit:4;stroke-dasharray:none;" stroke="black" fill="none" stroke-width="0.575999" id="circle4298" r="4.25196" cx="8.50392" cy="8.50392" stroke-opacity="1"/>
     <circle style="fill-rule:evenodd;stroke-linecap:butt;stroke-linejoin:miter;stroke-miterlimit:4;stroke-dasharray:none;" stroke="black" fill="none" stroke-width="0.575999" id="circle4300" r="4.25196" cx="104.882" cy="8.50392" stroke-opacity="1"/>
     <circle style="fill-rule:evenodd;stroke-linecap:butt;stroke-linejoin:miter;stroke-miterlimit:4;stroke-dasharray:none;" stroke="black" fill="none" stroke-width="0.575999" id="circle4302" r="4.25196" cx="104.882" cy="50.0484" stroke-opacity="1"/>
    </g>
   </g>
  </g>
  <g partID="854797580">
   <g transform="translate(-0.422347,28.4787)">
    <g transform="matrix(1,0,0,1,0,0)">
     <g id="silkscreen">
      <text text-anchor="middle" font-size="5.21758" fill="black" stroke-width="0" xml:space="preserve" id="label" font-family="OCRA" xmlns:xml="http://www.w3.org/XML/1998/namespace" x="7.82636" y="4.69582">GND</text>
     </g>
    </g>
   </g>
  </g>
  <g partID="854797540">
   <g transform="translate(29.3532,10.2798)">
    <g transform="matrix(1,0,0,1,0,0)">
     <g id="silkscreen">
      <text text-anchor="middle" font-size="5.09275" fill="black" stroke-width="0" xml:space="preserve" id="label" font-family="OCRA" xmlns:xml="http://www.w3.org/XML/1998/namespace" x="12.7319" y="4.58347">+7.4V</text>
     </g>
    </g>
   </g>
  </g>
  <g partID="854823590">
   <g transform="translate(9.28641,17.5171)">
    <g transform="matrix(1,0,0,1,0,0)">
     <g id="silkscreen">
      <text text-anchor="middle" font-size="5.21758" fill="black" stroke-width="0" xml:space="preserve" id="label" font-family="OCRA" xmlns:xml="http://www.w3.org/XML/1998/namespace" x="7.82636" y="4.69582">GND</text>
     </g>
    </g>
   </g>
  </g>
  <g partID="854797380">
   <g transform="translate(28.4713,32.3988)">
    <g transform="matrix(1,0,0,1,0,0)">
     <g id="silkscreen">
      <text text-anchor="middle" font-size="5.13956" fill="black" stroke-width="0" xml:space="preserve" id="label" font-family="OCRA" xmlns:xml="http://www.w3.org/XML/1998/namespace" x="10.2791" y="4.6256">+60V</text>
     </g>
    </g>
   </g>
  </g>
  <g partID="854797360">
   <g transform="translate(107.034,25.2075)">
    <g transform="matrix(1,0,0,1,0,0)">
     <g id="silkscreen">
      <text text-anchor="middle" font-size="5.66929" fill="black" stroke-width="0" xml:space="preserve" id="label" font-family="OCRA" xmlns:xml="http://www.w3.org/XML/1998/namespace" x="2.83465" y="5.10235">D</text>
     </g>
    </g>
   </g>
  </g>
  <g partID="854797340">
   <g transform="translate(107.077,32.4064)">
    <g transform="matrix(1,0,0,1,0,0)">
     <g id="silkscreen">
      <text text-anchor="middle" font-size="5.66929" fill="black" stroke-width="0" xml:space="preserve" id="label" font-family="OCRA" xmlns:xml="http://www.w3.org/XML/1998/namespace" x="2.83465" y="5.10235">D</text>
     </g>
    </g>
   </g>
  </g>
  <g partID="854442191">
   <g transform="translate(93.4256,25.6982)">
    <g transform="matrix(0,1,-1,0,0,0)">
     <g id="silkscreen">
      <line stroke="black" stroke-width="0.72" y1="3.096" y2="3.096" x1="5.4" x2="10.584"/>
      <line stroke="black" stroke-width="0.72" y1="3.096" y2="3.096" x1="24.984" x2="28.8"/>
      <line stroke="black" stroke-width="0.72" y1="0.72" y2="0.72" x1="10.584" x2="24.984"/>
      <line stroke="black" stroke-width="0.72" y1="0.72" y2="5.472" x1="24.984" x2="24.984"/>
      <line stroke="black" stroke-width="0.72" y1="5.472" y2="5.472" x1="24.984" x2="10.584"/>
      <line stroke="black" stroke-width="0.72" y1="5.472" y2="0.72" x1="10.584" x2="10.584"/>
     </g>
    </g>
   </g>
  </g>
  <g partID="57481">
   <g transform="translate(93.2096,9.67825)">
    <g transform="matrix(-1,0,0,-1,0,0)">
     <g id="silkscreen">
      <rect style="stroke-linecap:round;stroke-linejoin:round;stroke-miterlimit:4;stroke-dasharray:none" stroke="black" width="16.56" fill="none" height="5.04" stroke-width="0.72" id="rect3790" stroke-opacity="1" x="9" y="0.36"/>
      <path style="stroke-linecap:round;stroke-linejoin:miter;stroke-miterlimit:4;stroke-dasharray:none" stroke="black" fill="none" stroke-width="0.72" id="path3798" d="m8.64,2.88,-2.16,0" stroke-opacity="1"/>
      <path style="stroke-linecap:round;stroke-linejoin:miter;stroke-miterlimit:4;stroke-dasharray:none" stroke="black" fill="none" stroke-width="0.72" id="path3800" d="m25.92,2.88,2.16,0" stroke-opacity="1"/>
      <path style="stroke-linecap:round;stroke-linejoin:round;stroke-miterlimit:4;stroke-dasharray:none" stroke="black" fill="none" stroke-width="0.72" id="path3715" d="M10.08,3.6A1.8,1.8,0,0,1,13.68,3.6" stroke-opacity="1"/>
      <path style="stroke-linecap:round;stroke-linejoin:round;stroke-miterlimit:4;stroke-dasharray:none" stroke="black" fill="none" stroke-width="0.72" id="path3717" d="M13.68,3.6A1.8,1.8,0,0,1,17.28,3.6" stroke-opacity="1"/>
      <path style="stroke-linecap:round;stroke-linejoin:round;stroke-miterlimit:4;stroke-dasharray:none" stroke="black" fill="none" stroke-width="0.72" id="path3719" d="M17.28,3.6A1.8,1.8,0,0,1,20.88,3.6" stroke-opacity="1"/>
      <path style="stroke-linecap:round;stroke-linejoin:round;stroke-miterlimit:4;stroke-dasharray:none" stroke="black" fill="none" stroke-width="0.72" id="path3721" d="M20.88,3.6A1.8,1.8,0,0,1,24.48,3.6" stroke-opacity="1"/>
     </g>
    </g>
   </g>
  </g>
  <g partID="57701">
   <g transform="translate(54.3296,65.8382)">
    <g transform="matrix(0,-1,1,0,0,0)">
     <g id="silkscreen">
      <line stroke="black" stroke-width="0.72" y1="5.76" y2="5.76" x1="1.44" x2="30.24"/>
      <line stroke="black" stroke-width="0.72" y1="5.76" y2="18.72" x1="30.24" x2="30.24"/>
      <line stroke="black" stroke-width="0.72" y1="18.72" y2="18.72" x1="30.24" x2="1.44"/>
      <line stroke="black" stroke-width="0.72" y1="18.72" y2="5.76" x1="1.44" x2="1.44"/>
      <line stroke="black" stroke-width="0.72" y1="5.76" y2="5.76" x1="1.44" x2="30.24"/>
      <line stroke="black" stroke-width="0.72" y1="5.76" y2="10.08" x1="30.24" x2="30.24"/>
      <line stroke="black" stroke-width="0.72" y1="10.08" y2="10.08" x1="30.24" x2="1.44"/>
      <line stroke="black" stroke-width="0.72" y1="10.08" y2="5.76" x1="1.44" x2="1.44"/>
      <line stroke="black" stroke-width="0.36" y1="5.76" y2="10.08" x1="10.8" x2="10.8"/>
      <line stroke="black" stroke-width="0.36" y1="5.76" y2="10.08" x1="20.88" x2="20.88"/>
     </g>
    </g>
   </g>
  </g>
  <g partID="854255931">
   <g transform="translate(58.5056,28.3982)">
    <g id="silkscreen">
     <line stroke="black" stroke-width="0.72" stroke-linecap="flat" y1="3.6" y2="3.6" x1="5.976" x2="6.912"/>
     <line stroke="black" stroke-width="0.72" stroke-linecap="flat" y1="3.6" y2="3.6" x1="20.952" x2="21.456"/>
     <line stroke="black" stroke-width="0.72" stroke-linecap="flat" y1="0.36" y2="0.36" x1="6.912" x2="20.952"/>
     <line stroke="black" stroke-width="0.72" stroke-linecap="flat" y1="0.36" y2="6.84" x1="20.952" x2="20.952"/>
     <line stroke="black" stroke-width="0.72" stroke-linecap="flat" y1="6.84" y2="6.84" x1="20.952" x2="6.912"/>
     <line stroke="black" stroke-width="0.72" stroke-linecap="flat" y1="6.84" y2="0.36" x1="6.912" x2="6.912"/>
     <line stroke="black" stroke-width="1.44" stroke-linecap="flat" y1="6.84" y2="0.36" x1="8.352" x2="8.352"/>
    </g>
   </g>
  </g>
  <g partID="854259411">
   <g transform="translate(47.4896,-4.36175)">
    <g transform="matrix(0,1,-1,0,0,0)">
     <g id="silkscreen">
      <circle stroke="black" fill="none" stroke-width="0.72" id="circle7" r="21.6" cx="21.96" cy="21.96"/>
      <g transform="scale(11.111111,11.111111)">
       <path style="stroke-linecap:round" stroke="black" fill="none" stroke-width="0.072" id="path2834" d="m0.81,1.1988,0.3888,0"/>
      </g>
      <g transform="scale(11.111111,11.111111)">
       <path style="stroke-linecap:round" stroke="black" fill="none" stroke-width="0.072" id="path3608" d="m0.81,2.754,0.3888,0"/>
      </g>
     </g>
    </g>
   </g>
  </g>
  <g partID="57480" id="partLabel">
   <g transform="translate(72.4827,0.0932349)">
    <g stroke="none" font-size="5" fill="#000000" font-weight="normal" fill-opacity="1" id="silkscreenLabel" font-style="normal" font-family="'OCRA'">
     <text x="0" y="3.75">L1</text>
    </g>
   </g>
  </g>
  <g partID="57700" id="partLabel">
   <g transform="translate(49.8715,48.3448)">
    <g stroke="none" font-size="5" fill="#000000" font-weight="normal" fill-opacity="1" id="silkscreenLabel" font-style="normal" font-family="'OCRA'">
     <text x="0" y="3.75">Q1</text>
    </g>
   </g>
  </g>
  <g partID="854259410" id="partLabel">
   <g transform="translate(17.0185,32.8541)">
    <g stroke="none" font-size="5" fill="#000000" font-weight="normal" fill-opacity="1" id="silkscreenLabel" font-style="normal" font-family="'OCRA'">
     <text x="0" y="3.75">C3</text>
    </g>
   </g>
  </g>
  <g partID="854255930" id="partLabel">
   <g transform="translate(69.0004,24.0785)">
    <g stroke="none" font-size="5" fill="#000000" font-weight="normal" fill-opacity="1" id="silkscreenLabel" font-style="normal" font-family="'OCRA'">
     <text x="0" y="3.75">D1</text>
    </g>
   </g>
  </g>
  <g partID="854442190" id="partLabel">
   <g transform="translate(93.5668,38.8069)">
    <g stroke="none" font-size="5" fill="#000000" font-weight="normal" fill-opacity="1" id="silkscreenLabel" font-style="normal" font-family="'OCRA'">
     <text x="0" y="3.75">R4</text>
    </g>
   </g>
  </g>
  <g partID="854797621">
   <g transform="translate(3.21404,20.4827)">
    <g id="copper1">
     <circle stroke="white" fill="white" stroke-width="2.16" id="connector0pin" r="1.99559" cx="4.31559" cy="4.31559"/>
    </g>
   </g>
  </g>
  <g partID="854797601">
   <g transform="translate(21.214,13.2827)">
    <g id="copper1">
     <circle stroke="white" fill="white" stroke-width="2.16" id="connector0pin" r="1.99559" cx="4.31559" cy="4.31559"/>
    </g>
   </g>
  </g>
  <g partID="854796761">
   <g transform="translate(100.414,31.2827)">
    <g id="copper1">
     <circle stroke="white" fill="white" stroke-width="2.16" id="connector0pin" r="1.99559" cx="4.31559" cy="4.31559"/>
    </g>
   </g>
  </g>
  <g partID="854796341">
   <g transform="translate(32.014,2.48265)">
    <g id="copper1">
     <circle stroke="white" fill="white" stroke-width="2.16" id="connector0pin" r="1.99559" cx="4.31559" cy="4.31559"/>
    </g>
   </g>
  </g>
  <g partID="854796321">
   <g transform="translate(32.014,24.0827)">
    <g id="copper1">
     <circle stroke="white" fill="white" stroke-width="2.16" id="connector0pin" r="1.99559" cx="4.31559" cy="4.31559"/>
    </g>
   </g>
  </g>
  <g partID="854795221">
   <g transform="translate(100.414,24.0827)">
    <g id="copper1">
     <circle stroke="white" fill="white" stroke-width="2.16" id="connector0pin" r="1.99559" cx="4.31559" cy="4.31559"/>
    </g>
   </g>
  </g>
  <g partID="854795201">
   <g transform="translate(39.214,24.0827)">
    <g id="copper1">
     <circle stroke="white" fill="white" stroke-width="2.16" id="connector0pin" r="1.99559" cx="4.31559" cy="4.31559"/>
    </g>
   </g>
  </g>
  <g partID="854795181">
   <g transform="translate(39.214,2.48265)">
    <g id="copper1">
     <circle stroke="white" fill="white" stroke-width="2.16" id="connector0pin" r="1.99559" cx="4.31559" cy="4.31559"/>
    </g>
   </g>
  </g>
  <g partID="854442192">
   <g transform="translate(93.4256,25.6982)">
    <g transform="matrix(0,1,-1,0,0,0)">
     <g id="copper1">
      <!-- <rect width="55" x="10" y="15.5" fill="none" height="55" stroke="rgb(255, 191, 0)" stroke-width="20" />  -->
      <circle stroke="white" fill="white" stroke-width="2.16" id="connector0pin" r="1.98" cx="2.7" cy="3.096"/>
      <circle stroke="white" fill="white" stroke-width="2.16" id="connector1pin" r="1.98" cx="31.5" cy="3.096"/>
     </g>
    </g>
   </g>
  </g>
  <g partID="57482">
   <g transform="translate(93.2096,9.67825)">
    <g transform="matrix(-1,0,0,-1,0,0)">
     <g id="copper1">
      <circle stroke="white" fill="white" stroke-width="2.16" id="connector1pin" r="2.16" cx="2.88" cy="2.88"/>
      <circle stroke="white" fill="white" stroke-width="2.16" id="connector0pin" r="2.16" cx="31.68" cy="2.88"/>
     </g>
    </g>
   </g>
  </g>
  <g partID="57702">
   <g transform="translate(54.3296,65.8382)">
    <g transform="matrix(0,-1,1,0,0,0)">
     <g id="copper1">
      <g id="copper0">
       <rect stroke="white" fill="white" width="4.464" height="4.464" stroke-width="2.16" x="6.408" y="12.168"/>
       <circle stroke="white" fill="white" stroke-width="2.16" id="connector0pad" r="2.232" cx="8.64" cy="14.4"/>
       <circle stroke="white" fill="white" stroke-width="2.16" id="connector1pad" r="2.232" cx="15.84" cy="14.4"/>
       <circle stroke="white" fill="white" stroke-width="2.16" id="connector2pad" r="2.232" cx="23.04" cy="14.4"/>
      </g>
     </g>
    </g>
   </g>
  </g>
  <g partID="854255932">
   <g transform="translate(58.5056,28.3982)">
    <g id="copper1">
     <g id="copper0">
      <rect stroke="white" fill="white" width="4.464" height="4.464" stroke-width="2.16" x="0.72" y="1.368"/>
      <circle stroke="white" fill="white" stroke-width="2.16" id="connector0pin" r="2.232" cx="3.024" cy="3.6"/>
      <circle stroke="white" fill="white" stroke-width="2.16" id="connector1pin" r="2.232" cx="24.48" cy="3.6"/>
     </g>
    </g>
   </g>
  </g>
  <g partID="854259412">
   <g transform="translate(47.4896,-4.36175)">
    <g transform="matrix(0,1,-1,0,0,0)">
     <g id="copper1">
      <g id="copper0">
       <rect stroke="white" width="4.464" fill="white" height="4.464" stroke-width="2.16" id="rect11" x="8.928" y="19.728"/>
       <circle stroke="white" fill="white" stroke-width="2.16" id="connector0pin" r="2.232" cx="11.16" cy="21.96"/>
       <circle stroke="white" fill="white" stroke-width="2.16" id="connector1pin" r="2.232" cx="32.76" cy="21.96"/>
      </g>
     </g>
    </g>
   </g>
  </g>
 </g>
</svg>
