<?xml version='1.0' encoding='UTF-8' standalone='no'?>
<!-- Created with Fritzing (http://www.fritzing.org/) -->
<svg xmlns="http://www.w3.org/2000/svg" xmlns:svg="http://www.w3.org/2000/svg" version="1.2" width="1.5748in" baseProfile="tiny" height="1.1811in"  viewBox="0 0 113.386 85.0392" x="0in" y="0in">
 <g partID="854719560">
  <g style="display:inline" id="board" >
   <path style="fill-rule:evenodd;stroke-linecap:butt;stroke-linejoin:miter;" stroke="black" fill="none" stroke-width="0.5" fill-opacity="1" id="boardoutline"  d="M0,0,0,85.0389,113.386,56.6921,113.386,0,0,0Zm8.50467,4.25155a4.25196,4.25196,0,0,1,4.25155,4.25312,4.25196,4.25196,0,0,1,-4.25155,4.25155,4.25196,4.25196,0,0,1,-4.25312,-4.25155,4.25196,4.25196,0,0,1,4.25312,-4.25312zm96.3764,0a4.25196,4.25196,0,0,1,4.25312,4.25312,4.25196,4.25196,0,0,1,-4.25312,4.25155,4.25196,4.25196,0,0,1,-4.25155,-4.25155,4.25196,4.25196,0,0,1,4.25155,-4.25312zm0,41.5452a4.25196,4.25196,0,0,1,4.25312,4.25155,4.25196,4.25196,0,0,1,-4.25312,4.25155,4.25196,4.25196,0,0,1,-4.25155,-4.25155,4.25196,4.25196,0,0,1,4.25155,-4.25155zM8.50467,69.8874a4.25196,4.25196,0,0,1,4.25155,4.25312,4.25196,4.25196,0,0,1,-4.25155,4.25155,4.25196,4.25196,0,0,1,-4.25312,-4.25155,4.25196,4.25196,0,0,1,4.25312,-4.25312z" stroke-opacity="1"/>
  </g>
 </g>
 <g partID="854797621">
  <g transform="translate(3.21404,20.4827)">
   <g id="copper1" >
    <circle stroke="black" fill="black" stroke-width="2.16" id="connector0pin" r="1.99559"  cx="4.31559" cy="4.31559"/>
   </g>
  </g>
 </g>
 <g partID="854797601">
  <g transform="translate(21.214,13.2827)">
   <g id="copper1" >
    <circle stroke="black" fill="black" stroke-width="2.16" id="connector0pin" r="1.99559"  cx="4.31559" cy="4.31559"/>
   </g>
  </g>
 </g>
 <g partID="854796761">
  <g transform="translate(100.414,31.2827)">
   <g id="copper1" >
    <circle stroke="black" fill="black" stroke-width="2.16" id="connector0pin" r="1.99559"  cx="4.31559" cy="4.31559"/>
   </g>
  </g>
 </g>
 <g partID="854796341">
  <g transform="translate(32.014,2.48265)">
   <g id="copper1" >
    <circle stroke="black" fill="black" stroke-width="2.16" id="connector0pin" r="1.99559"  cx="4.31559" cy="4.31559"/>
   </g>
  </g>
 </g>
 <g partID="854796321">
  <g transform="translate(32.014,24.0827)">
   <g id="copper1" >
    <circle stroke="black" fill="black" stroke-width="2.16" id="connector0pin" r="1.99559"  cx="4.31559" cy="4.31559"/>
   </g>
  </g>
 </g>
 <g partID="854795221">
  <g transform="translate(100.414,24.0827)">
   <g id="copper1" >
    <circle stroke="black" fill="black" stroke-width="2.16" id="connector0pin" r="1.99559"  cx="4.31559" cy="4.31559"/>
   </g>
  </g>
 </g>
 <g partID="854795201">
  <g transform="translate(39.214,24.0827)">
   <g id="copper1" >
    <circle stroke="black" fill="black" stroke-width="2.16" id="connector0pin" r="1.99559"  cx="4.31559" cy="4.31559"/>
   </g>
  </g>
 </g>
 <g partID="854795181">
  <g transform="translate(39.214,2.48265)">
   <g id="copper1" >
    <circle stroke="black" fill="black" stroke-width="2.16" id="connector0pin" r="1.99559"  cx="4.31559" cy="4.31559"/>
   </g>
  </g>
 </g>
 <g partID="854442192">
  <g transform="translate(93.4256,25.6982)">
   <g transform="matrix(0,1,-1,0,0,0)">
    <g id="copper1" >
     <!-- <rect width="55" x="10" y="15.5" fill="none" height="55" stroke="rgb(255, 191, 0)" stroke-width="20" />  -->
     <circle stroke="black" fill="black" stroke-width="2.16" id="connector0pin" r="1.98"  cx="2.7" cy="3.096"/>
     <circle stroke="black" fill="black" stroke-width="2.16" id="connector1pin" r="1.98"  cx="31.5" cy="3.096"/>
    </g>
   </g>
  </g>
 </g>
 <g partID="57482">
  <g transform="translate(93.2096,9.67825)">
   <g transform="matrix(-1,0,0,-1,0,0)">
    <g id="copper1" >
     <circle stroke="black" fill="black" stroke-width="2.16" id="connector1pin" r="2.16"  cx="2.88" cy="2.88"/>
     <circle stroke="black" fill="black" stroke-width="2.16" id="connector0pin" r="2.16"  cx="31.68" cy="2.88"/>
    </g>
   </g>
  </g>
 </g>
 <g partID="57702">
  <g transform="translate(54.3296,65.8382)">
   <g transform="matrix(0,-1,1,0,0,0)">
    <g id="copper1" >
     <g id="copper0" >
      <rect stroke="black" fill="black" width="4.464" height="4.464" stroke-width="2.16"  x="6.408" y="12.168"/>
      <circle stroke="black" fill="black" stroke-width="2.16" id="connector0pad" r="2.232"  cx="8.64" cy="14.4"/>
      <circle stroke="black" fill="black" stroke-width="2.16" id="connector1pad" r="2.232"  cx="15.84" cy="14.4"/>
      <circle stroke="black" fill="black" stroke-width="2.16" id="connector2pad" r="2.232"  cx="23.04" cy="14.4"/>
     </g>
    </g>
   </g>
  </g>
 </g>
 <g partID="854255932">
  <g transform="translate(58.5056,28.3982)">
   <g id="copper1" >
    <g id="copper0" >
     <rect stroke="black" fill="black" width="4.464" height="4.464" stroke-width="2.16"  x="0.72" y="1.368"/>
     <circle stroke="black" fill="black" stroke-width="2.16" id="connector0pin" r="2.232"  cx="3.024" cy="3.6"/>
     <circle stroke="black" fill="black" stroke-width="2.16" id="connector1pin" r="2.232"  cx="24.48" cy="3.6"/>
    </g>
   </g>
  </g>
 </g>
 <g partID="854259412">
  <g transform="translate(47.4896,-4.36175)">
   <g transform="matrix(0,1,-1,0,0,0)">
    <g id="copper1" >
     <g id="copper0" >
      <rect stroke="black" width="4.464" fill="black" height="4.464" stroke-width="2.16" id="rect11"  x="8.928" y="19.728"/>
      <circle stroke="black" fill="black" stroke-width="2.16" id="connector0pin" r="2.232"  cx="11.16" cy="21.96"/>
      <circle stroke="black" fill="black" stroke-width="2.16" id="connector1pin" r="2.232"  cx="32.76" cy="21.96"/>
     </g>
    </g>
   </g>
  </g>
 </g>
</svg>
