<?xml version='1.0' encoding='UTF-8' standalone='no'?>
<!-- Created with Fritzing (http://www.fritzing.org/) -->
<svg xmlns="http://www.w3.org/2000/svg" xmlns:svg="http://www.w3.org/2000/svg" version="1.2" width="1.5748in" baseProfile="tiny" height="1.1811in"  viewBox="0 0 113.386 85.0392" x="0in" y="0in">
 <g partID="854719560">
  <g style="display:inline" id="board" >
   <path style="fill-rule:evenodd;stroke-linecap:butt;stroke-linejoin:miter;" stroke="black" fill="none" stroke-width="0.5" fill-opacity="1" id="boardoutline"  d="M0,0,0,85.0389,113.386,56.6921,113.386,0,0,0Zm8.50467,4.25155a4.25196,4.25196,0,0,1,4.25155,4.25312,4.25196,4.25196,0,0,1,-4.25155,4.25155,4.25196,4.25196,0,0,1,-4.25312,-4.25155,4.25196,4.25196,0,0,1,4.25312,-4.25312zm96.3764,0a4.25196,4.25196,0,0,1,4.25312,4.25312,4.25196,4.25196,0,0,1,-4.25312,4.25155,4.25196,4.25196,0,0,1,-4.25155,-4.25155,4.25196,4.25196,0,0,1,4.25155,-4.25312zm0,41.5452a4.25196,4.25196,0,0,1,4.25312,4.25155,4.25196,4.25196,0,0,1,-4.25312,4.25155,4.25196,4.25196,0,0,1,-4.25155,-4.25155,4.25196,4.25196,0,0,1,4.25155,-4.25155zM8.50467,69.8874a4.25196,4.25196,0,0,1,4.25155,4.25312,4.25196,4.25196,0,0,1,-4.25155,4.25155,4.25196,4.25196,0,0,1,-4.25312,-4.25155,4.25196,4.25196,0,0,1,4.25312,-4.25312z" stroke-opacity="1"/>
  </g>
 </g>
 <g partID="854792600">
  <g transform="translate(51.2241,34.225)">
   <g transform="matrix(0,1,-1,0,0,0)">
    <g id="copper0" >
     <rect stroke="none" fill="black" width="28.3465" stroke-width="0" height="48.189" fill-opacity="1" id="0"  x="1.6" y="1.6"/>
     <g stroke="none" fill="none" width="28.3465" stroke-width="0" height="48.189" id="1"  x="1.6" y="1.6"/>
    </g>
   </g>
  </g>
 </g>
 <g partID="854797620">
  <g transform="translate(3.21404,20.4827)">
   <g id="copper0" >
    <g stroke="black" fill="none" stroke-width="1.44" id="2" r="1.99559"  cx="4.31559" cy="4.31559"/>
   </g>
  </g>
 </g>
 <g partID="854797600">
  <g transform="translate(21.214,13.2827)">
   <g id="copper0" >
    <g stroke="black" fill="none" stroke-width="1.44" id="3" r="1.99559"  cx="4.31559" cy="4.31559"/>
   </g>
  </g>
 </g>
 <g partID="854796760">
  <g transform="translate(100.414,31.2827)">
   <g id="copper0" >
    <g stroke="black" fill="none" stroke-width="1.44" id="4" r="1.99559"  cx="4.31559" cy="4.31559"/>
   </g>
  </g>
 </g>
 <g partID="854796340">
  <g transform="translate(32.014,2.48265)">
   <g id="copper0" >
    <g stroke="black" fill="none" stroke-width="1.44" id="5" r="1.99559"  cx="4.31559" cy="4.31559"/>
   </g>
  </g>
 </g>
 <g partID="854796320">
  <g transform="translate(32.014,24.0827)">
   <g id="copper0" >
    <g stroke="black" fill="none" stroke-width="1.44" id="6" r="1.99559"  cx="4.31559" cy="4.31559"/>
   </g>
  </g>
 </g>
 <g partID="854795220">
  <g transform="translate(100.414,24.0827)">
   <g id="copper0" >
    <g stroke="black" fill="none" stroke-width="1.44" id="7" r="1.99559"  cx="4.31559" cy="4.31559"/>
   </g>
  </g>
 </g>
 <g partID="854795200">
  <g transform="translate(39.214,24.0827)">
   <g id="copper0" >
    <g stroke="black" fill="none" stroke-width="1.44" id="8" r="1.99559"  cx="4.31559" cy="4.31559"/>
   </g>
  </g>
 </g>
 <g partID="854795180">
  <g transform="translate(39.214,2.48265)">
   <g id="copper0" >
    <g stroke="black" fill="none" stroke-width="1.44" id="9" r="1.99559"  cx="4.31559" cy="4.31559"/>
   </g>
  </g>
 </g>
 <g partID="854442190">
  <g transform="translate(93.4256,25.6982)">
   <g transform="matrix(0,1,-1,0,0,0)">
    <g id="copper0" >
     <g id="copper1" >
      <!-- <rect width="55" x="10" y="15.5" fill="none" height="55" stroke="rgb(255, 191, 0)" stroke-width="20" />  -->
      <g stroke="black" fill="none" stroke-width="1.44" id="10" r="1.98"  cx="2.7" cy="3.096"/>
      <g stroke="black" fill="none" stroke-width="1.44" id="11" r="1.98"  cx="31.5" cy="3.096"/>
     </g>
    </g>
   </g>
  </g>
 </g>
 <g partID="57480">
  <g transform="translate(93.2096,9.67825)">
   <g transform="matrix(-1,0,0,-1,0,0)">
    <g id="copper0" >
     <g id="copper1" >
      <g stroke="black" fill="none" stroke-width="1.44" id="12" r="2.16"  cx="2.88" cy="2.88"/>
      <g stroke="black" fill="none" stroke-width="1.44" id="13" r="2.16"  cx="31.68" cy="2.88"/>
     </g>
    </g>
   </g>
  </g>
 </g>
 <g partID="57700">
  <g transform="translate(54.3296,65.8382)">
   <g transform="matrix(0,-1,1,0,0,0)">
    <g id="copper0" >
     <g stroke="black" fill="none" width="4.464" height="4.464" stroke-width="1.44" id="14"  x="6.408" y="12.168"/>
     <g stroke="black" fill="none" stroke-width="1.44" id="15" r="2.232"  cx="8.64" cy="14.4"/>
     <g stroke="black" fill="none" stroke-width="1.44" id="16" r="2.232"  cx="15.84" cy="14.4"/>
     <g stroke="black" fill="none" stroke-width="1.44" id="17" r="2.232"  cx="23.04" cy="14.4"/>
    </g>
   </g>
  </g>
 </g>
 <g partID="854255930">
  <g transform="translate(58.5056,28.3982)">
   <g id="copper0" >
    <g stroke="black" fill="none" width="4.464" height="4.464" stroke-width="1.44" id="18"  x="0.72" y="1.368"/>
    <g stroke="black" fill="none" stroke-width="1.44" id="19" r="2.232"  cx="3.024" cy="3.6"/>
    <g stroke="black" fill="none" stroke-width="1.44" id="20" r="2.232"  cx="24.48" cy="3.6"/>
   </g>
  </g>
 </g>
 <g partID="854259410">
  <g transform="translate(47.4896,-4.36175)">
   <g transform="matrix(0,1,-1,0,0,0)">
    <g id="copper0" >
     <g stroke="black" width="4.464" fill="none" height="4.464" stroke-width="1.44" id="21"  x="8.928" y="19.728"/>
     <g stroke="black" fill="none" stroke-width="1.44" id="22" r="2.232"  cx="11.16" cy="21.96"/>
     <g stroke="black" fill="none" stroke-width="1.44" id="23" r="2.232"  cx="32.76" cy="21.96"/>
    </g>
   </g>
  </g>
 </g>
</svg>
